<svg width="590" height="80" viewBox="0 0 590 80" fill="none" xmlns="http://www.w3.org/2000/svg">
<path fill-rule="evenodd" clip-rule="evenodd" d="M133.028 1.0208H131.758C125.075 1.0104 119.652 6.4233 119.652 13.1062V40.134C119.652 45.532 115.191 49.903 109.883 49.903C106.729 49.903 103.58 48.316 101.711 45.651L74.105 6.2255C71.815 2.9518 68.089 1 64.055 1C57.763 1 52.1 6.3504 52.1 12.9552V40.139C52.1 45.537 47.676 49.909 42.331 49.909C39.166 49.909 36.023 48.321 34.154 45.656L3.264 1.5413C2.5666 0.547198 1 1.0364 1 2.2543V25.826C1 27.018 1.3643 28.174 2.0462 29.152L32.442 72.565C34.237 75.131 36.887 77.036 39.942 77.728C47.587 79.466 54.624 73.58 54.624 66.08V38.911C54.624 33.514 58.996 29.142 64.393 29.142H64.409C67.662 29.142 70.712 30.729 72.58 33.394L100.186 72.815C102.481 76.094 106.016 78.04 110.231 78.04C116.664 78.04 122.176 72.685 122.176 66.085V38.906C122.176 33.509 126.548 29.137 131.945 29.137H133.023C133.699 29.137 134.246 28.59 134.246 27.914V2.2387C134.246 1.5621 133.699 1.0156 133.023 1.0156L133.028 1.0208ZM291.506 21.3608H284.75C284.063 21.3608 283.506 21.9177 283.506 22.6048V76.786C283.506 77.473 284.063 78.03 284.75 78.03H291.506C292.193 78.03 292.75 77.473 292.75 76.786V22.6048C292.75 21.9177 292.193 21.3608 291.506 21.3608ZM284.526 1.0052H291.725C292.412 1.0052 292.968 1.5621 292.968 2.2491V11.0972C292.968 11.7842 292.412 12.3411 291.725 12.3411H284.526C283.839 12.3411 283.282 11.7842 283.282 11.0972V2.2491C283.282 1.5621 283.839 1.0052 284.526 1.0052ZM331.942 19.8203C324.349 19.8203 318.847 22.459 315.324 26.316C314.194 27.461 312.242 26.659 312.242 25.051V22.6048C312.242 21.9177 311.685 21.3608 310.998 21.3608H304.357C303.67 21.3608 303.113 21.9177 303.113 22.6048V76.786C303.113 77.473 303.67 78.03 304.357 78.03H311.004C311.691 78.03 312.248 77.473 312.248 76.786V42.487C312.248 30.599 314.558 27.96 327.216 27.96C339.874 27.96 341.961 30.053 341.961 41.935V76.781C341.961 77.468 342.518 78.025 343.205 78.025H349.961C350.648 78.025 351.205 77.468 351.205 76.781V39.4C351.205 25.863 343.502 19.8098 331.947 19.8098V19.8203H331.942ZM400.957 27.086C402.086 28.231 404.038 27.43 404.038 25.821V2.2543C404.038 1.5673 404.595 1.0104 405.282 1.0104H411.928C412.615 1.0104 413.172 1.5673 413.172 2.2543V76.791C413.172 77.478 412.615 78.035 411.928 78.035H405.282C404.595 78.035 404.038 77.478 404.038 76.791V73.575C404.106 71.93 402.112 71.139 400.957 72.31C397.766 76.271 391.604 79.57 383.349 79.57C368.828 79.57 359.361 69.229 359.361 49.971C359.361 29.616 369.921 19.8203 383.677 19.8203C391.932 19.8203 397.876 23.125 400.957 27.086ZM369.369 49.747C369.369 68.344 371.68 71.097 386.758 71.097C401.727 71.097 404.038 68.344 404.038 49.747C404.038 31.151 401.836 28.288 386.758 28.288C371.68 28.288 369.369 31.151 369.369 49.747ZM451.802 46.234L440.914 44.366C432.878 42.934 431.446 40.514 431.446 36.33C431.556 30.604 433.757 27.747 444.432 27.747C454.43 27.747 457.631 30.703 458.318 37.084C458.386 37.714 458.917 38.198 459.552 38.198H466.157C466.864 38.198 467.442 37.605 467.4 36.892C466.76 25.936 456.731 19.815 444.765 19.815C431.337 19.815 422.427 26.966 422.427 37.204C422.427 46.557 429.692 50.632 438.384 52.282L450.381 54.484C456.986 55.696 459.187 57.898 459.187 62.077C459.187 68.791 456.876 71.654 445.541 71.654C434.205 71.654 431.072 68.385 430.343 61.76C430.275 61.13 429.744 60.651 429.109 60.651H422.463C421.765 60.651 421.198 61.229 421.214 61.926C421.531 73.731 432.232 79.581 444.984 79.581C458.849 79.581 468.421 72.429 468.421 61.64C468.421 52.178 461.155 47.884 451.802 46.234ZM499.903 71.435C512.228 71.435 514.539 68.797 514.539 56.909V22.6204C514.539 21.9334 515.096 21.3765 515.783 21.3765H522.539C523.226 21.3765 523.783 21.9334 523.783 22.6204V76.801C523.783 77.488 523.226 78.045 522.539 78.045H515.783C515.096 78.045 514.539 77.488 514.539 76.801V74.439C514.513 72.757 512.769 71.919 511.567 73.096C508.049 76.947 502.547 79.586 495.172 79.586C483.836 79.586 476.133 73.533 476.133 59.995V22.6152C476.133 21.9282 476.69 21.3713 477.377 21.3713H484.133C484.82 21.3713 485.377 21.9282 485.377 22.6152V57.461C485.377 69.343 487.579 71.435 499.903 71.435ZM577.839 21.3608V14.0951C577.839 11.2377 580.155 8.9216 583.012 8.9216H588.04C588.727 8.9216 589.284 8.3647 589.284 7.6777V2.2439C589.284 1.5569 588.727 1 588.04 1H584.553C574.648 1 568.595 6.5014 568.595 15.9688V21.3608H561.272C554.782 21.3712 549.687 22.2613 546.288 26.316C545.039 27.497 543.316 26.612 543.316 24.895V22.61C543.316 21.923 542.759 21.366 542.072 21.366H535.316C534.629 21.366 534.072 21.923 534.072 22.61V76.791C534.072 77.478 534.629 78.035 535.316 78.035H542.072C542.759 78.035 543.316 77.478 543.316 76.791V42.825C543.316 31.598 546.179 28.96 558.503 28.96H568.595V76.796C568.595 77.483 569.152 78.04 569.839 78.04H576.595C577.282 78.04 577.839 77.483 577.839 76.796V28.96H588.05C588.737 28.96 589.294 28.403 589.294 27.716V22.6152C589.294 21.9282 588.737 21.3713 588.05 21.3713H577.839V21.3608ZM245.892 63.899C246.132 64.893 247.022 65.596 248.042 65.596H248.047C249.062 65.596 249.947 64.903 250.191 63.92L265.686 1.9473C265.826 1.3904 266.326 1 266.898 1H274.633C275.46 1 276.064 1.7807 275.856 2.5822L256.364 77.129C256.224 77.655 255.75 78.025 255.203 78.025H241.406C240.849 78.025 240.365 77.645 240.224 77.109L224.032 14.7508C223.783 13.7776 222.903 13.0958 221.893 13.0958H221.753C220.748 13.0958 219.869 13.7776 219.614 14.7508L203.427 77.109C203.286 77.65 202.802 78.025 202.245 78.025H188.448C187.901 78.025 187.422 77.655 187.287 77.129L167.795 2.5822C167.587 1.7807 168.191 1 169.019 1H176.753C177.325 1 177.825 1.3904 177.965 1.9473L193.455 63.92C193.699 64.903 194.579 65.596 195.599 65.596C196.619 65.596 197.509 64.893 197.749 63.899L212.639 1.9577C212.775 1.3956 213.274 1 213.852 1H229.794C230.372 1 230.871 1.3956 231.007 1.9577L245.892 63.899Z" fill="black"/>
</svg>
