<svg width="590" height="120" viewBox="0 0 590 120" fill="none" xmlns="http://www.w3.org/2000/svg">
<path fill-rule="evenodd" clip-rule="evenodd" d="M133.028 21.0208H131.758C125.075 21.0104 119.652 26.4233 119.652 33.1062V60.134C119.652 65.532 115.191 69.903 109.883 69.903C106.729 69.903 103.58 68.316 101.711 65.651L74.105 26.2255C71.815 22.9518 68.089 21 64.055 21C57.763 21 52.1 26.3504 52.1 32.9552V60.139C52.1 65.537 47.676 69.909 42.331 69.909C39.166 69.909 36.023 68.321 34.154 65.656L3.264 21.5413C2.5666 20.5472 1 21.0364 1 22.2543V45.826C1 47.018 1.3643 48.174 2.0462 49.152L32.442 92.565C34.237 95.131 36.887 97.036 39.942 97.728C47.587 99.466 54.624 93.58 54.624 86.08V58.911C54.624 53.514 58.996 49.142 64.393 49.142H64.409C67.662 49.142 70.712 50.729 72.58 53.394L100.186 92.815C102.481 96.094 106.016 98.04 110.231 98.04C116.664 98.04 122.176 92.685 122.176 86.085V58.906C122.176 53.509 126.548 49.137 131.945 49.137H133.023C133.699 49.137 134.246 48.59 134.246 47.914V22.2387C134.246 21.5621 133.699 21.0156 133.023 21.0156L133.028 21.0208ZM291.506 41.3608H284.75C284.063 41.3608 283.506 41.9177 283.506 42.6048V96.786C283.506 97.473 284.063 98.03 284.75 98.03H291.506C292.193 98.03 292.75 97.473 292.75 96.786V42.6048C292.75 41.9177 292.193 41.3608 291.506 41.3608ZM284.526 21.0052H291.725C292.412 21.0052 292.968 21.5621 292.968 22.2491V31.0972C292.968 31.7842 292.412 32.3411 291.725 32.3411H284.526C283.839 32.3411 283.282 31.7842 283.282 31.0972V22.2491C283.282 21.5621 283.839 21.0052 284.526 21.0052ZM331.942 39.8203C324.349 39.8203 318.847 42.459 315.324 46.316C314.194 47.461 312.242 46.659 312.242 45.051V42.6048C312.242 41.9177 311.685 41.3608 310.998 41.3608H304.357C303.67 41.3608 303.113 41.9177 303.113 42.6048V96.786C303.113 97.473 303.67 98.03 304.357 98.03H311.004C311.691 98.03 312.248 97.473 312.248 96.786V62.487C312.248 50.599 314.558 47.96 327.216 47.96C339.874 47.96 341.961 50.053 341.961 61.935V96.781C341.961 97.468 342.518 98.025 343.205 98.025H349.961C350.648 98.025 351.205 97.468 351.205 96.781V59.4C351.205 45.863 343.502 39.8098 331.947 39.8098V39.8203H331.942ZM400.957 47.086C402.086 48.231 404.038 47.43 404.038 45.821V22.2543C404.038 21.5673 404.595 21.0104 405.282 21.0104H411.928C412.615 21.0104 413.172 21.5673 413.172 22.2543V96.791C413.172 97.478 412.615 98.035 411.928 98.035H405.282C404.595 98.035 404.038 97.478 404.038 96.791V93.575C404.106 91.93 402.112 91.139 400.957 92.31C397.766 96.271 391.604 99.57 383.349 99.57C368.828 99.57 359.361 89.229 359.361 69.971C359.361 49.616 369.921 39.8203 383.677 39.8203C391.932 39.8203 397.876 43.125 400.957 47.086ZM369.369 69.747C369.369 88.344 371.68 91.097 386.758 91.097C401.727 91.097 404.038 88.344 404.038 69.747C404.038 51.151 401.836 48.288 386.758 48.288C371.68 48.288 369.369 51.151 369.369 69.747ZM451.802 66.234L440.914 64.366C432.878 62.934 431.446 60.514 431.446 56.33C431.556 50.604 433.757 47.747 444.432 47.747C454.43 47.747 457.631 50.703 458.318 57.084C458.386 57.714 458.917 58.198 459.552 58.198H466.157C466.864 58.198 467.442 57.605 467.4 56.892C466.76 45.936 456.731 39.815 444.765 39.815C431.337 39.815 422.427 46.966 422.427 57.204C422.427 66.557 429.692 70.632 438.384 72.282L450.381 74.484C456.986 75.696 459.187 77.898 459.187 82.077C459.187 88.791 456.876 91.654 445.541 91.654C434.205 91.654 431.072 88.385 430.343 81.76C430.275 81.13 429.744 80.651 429.109 80.651H422.463C421.765 80.651 421.198 81.229 421.214 81.926C421.531 93.731 432.232 99.581 444.984 99.581C458.849 99.581 468.421 92.429 468.421 81.64C468.421 72.178 461.155 67.884 451.802 66.234ZM499.903 91.435C512.228 91.435 514.539 88.797 514.539 76.909V42.6204C514.539 41.9334 515.096 41.3765 515.783 41.3765H522.539C523.226 41.3765 523.783 41.9334 523.783 42.6204V96.801C523.783 97.488 523.226 98.045 522.539 98.045H515.783C515.096 98.045 514.539 97.488 514.539 96.801V94.439C514.513 92.757 512.769 91.919 511.567 93.096C508.049 96.947 502.547 99.586 495.172 99.586C483.836 99.586 476.133 93.533 476.133 79.995V42.6152C476.133 41.9282 476.69 41.3713 477.377 41.3713H484.133C484.82 41.3713 485.377 41.9282 485.377 42.6152V77.461C485.377 89.343 487.579 91.435 499.903 91.435ZM577.839 41.3608V34.0951C577.839 31.2377 580.155 28.9216 583.012 28.9216H588.04C588.727 28.9216 589.284 28.3647 589.284 27.6777V22.2439C589.284 21.5569 588.727 21 588.04 21H584.553C574.648 21 568.595 26.5014 568.595 35.9688V41.3608H561.272C554.782 41.3712 549.687 42.2613 546.288 46.316C545.039 47.497 543.316 46.612 543.316 44.895V42.61C543.316 41.923 542.759 41.366 542.072 41.366H535.316C534.629 41.366 534.072 41.923 534.072 42.61V96.791C534.072 97.478 534.629 98.035 535.316 98.035H542.072C542.759 98.035 543.316 97.478 543.316 96.791V62.825C543.316 51.598 546.179 48.96 558.503 48.96H568.595V96.796C568.595 97.483 569.152 98.04 569.839 98.04H576.595C577.282 98.04 577.839 97.483 577.839 96.796V48.96H588.05C588.737 48.96 589.294 48.403 589.294 47.716V42.6152C589.294 41.9282 588.737 41.3713 588.05 41.3713H577.839V41.3608ZM245.892 83.899C246.132 84.893 247.022 85.596 248.042 85.596H248.047C249.062 85.596 249.947 84.903 250.191 83.92L265.686 21.9473C265.826 21.3904 266.326 21 266.898 21H274.633C275.46 21 276.064 21.7807 275.856 22.5822L256.364 97.129C256.224 97.655 255.75 98.025 255.203 98.025H241.406C240.849 98.025 240.365 97.645 240.224 97.109L224.032 34.7508C223.783 33.7776 222.903 33.0958 221.893 33.0958H221.753C220.748 33.0958 219.869 33.7776 219.614 34.7508L203.427 97.109C203.286 97.65 202.802 98.025 202.245 98.025H188.448C187.901 98.025 187.422 97.655 187.287 97.129L167.795 22.5822C167.587 21.7807 168.191 21 169.019 21H176.753C177.325 21 177.825 21.3904 177.965 21.9473L193.455 83.92C193.699 84.903 194.579 85.596 195.599 85.596C196.619 85.596 197.509 84.893 197.749 83.899L212.639 21.9577C212.775 21.3956 213.274 21 213.852 21H229.794C230.372 21 230.871 21.3956 231.007 21.9577L245.892 83.899Z" fill="black"/>
</svg>
